<svg width="42" height="42" viewBox="0 0 42 42" fill="none" xmlns="http://www.w3.org/2000/svg">
<path d="M35.9975 26.005L38.5 23.5025L35.9975 21L29.75 27.2475L14.7525 12.25L21 6.0025L18.4975 3.5L15.995 6.0025L13.4925 3.5L9.7475 7.245L7.245 4.7425L4.7425 7.245L7.245 9.7475L3.5 13.4925L6.0025 15.995L3.5 18.4975L6.0025 21L12.25 14.7525L27.2475 29.75L21 35.9975L23.5025 38.5L26.005 35.9975L28.5075 38.5L32.2525 34.755L34.755 37.2575L37.2575 34.755L34.755 32.2525L38.5 28.5075L35.9975 26.005Z" fill="white"/>
</svg>
