<svg width="42" height="42" viewBox="0 0 42 42" fill="none" xmlns="http://www.w3.org/2000/svg">
<path d="M11.25 6.75C11.25 3.02457 14.2746 0 18 0C21.7254 0 24.75 3.02457 24.75 6.75C24.75 10.4754 21.7254 13.5 18 13.5C14.2746 13.5 11.25 10.4754 11.25 6.75ZM16.875 17.4375V36L13.4719 34.2984C12.0023 33.5672 10.4133 33.1031 8.775 32.9414L2.025 32.2664C0.878906 32.1469 0 31.1836 0 30.0234V15.75C0 14.5055 1.00547 13.5 2.25 13.5H4.38047C8.85234 13.5 13.2117 14.8781 16.875 17.4375ZM19.125 36V17.4375C22.7883 14.8781 27.1477 13.5 31.6195 13.5H33.75C34.9945 13.5 36 14.5055 36 15.75V30.0234C36 31.1766 35.1211 32.1469 33.975 32.2594L27.225 32.9344C25.5938 33.0961 23.9977 33.5602 22.5281 34.2914L19.125 36Z" fill="white"/>
</svg>
