<svg width="42" height="42" viewBox="0 0 42 42" fill="none" xmlns="http://www.w3.org/2000/svg">
<path d="M15.5109 8.84719L19.0617 7.07532H31.5V13.8253H23.4281C21.8883 12.7636 20.018 12.1378 18 12.1378C15.982 12.1378 14.1187 12.7636 12.5719 13.8253H4.5V9.32532H13.5C14.1961 9.32532 14.8852 9.1636 15.5109 8.84719ZM0 9.32532V29.5753C0 32.0573 2.01797 34.0753 4.5 34.0753H31.5C33.982 34.0753 36 32.0573 36 29.5753V7.07532C36 4.59329 33.982 2.57532 31.5 2.57532H19.0617C18.3656 2.57532 17.6766 2.73704 17.0508 3.05344L13.5 4.82532H11.25V3.70032C11.25 3.08157 10.7437 2.57532 10.125 2.57532H5.625C5.00625 2.57532 4.5 3.08157 4.5 3.70032V4.82532C2.01797 4.82532 0 6.84329 0 9.32532ZM11.8125 21.7003C11.8125 18.2853 14.585 15.5128 18 15.5128C21.415 15.5128 24.1875 18.2853 24.1875 21.7003C24.1875 25.1153 21.415 27.8878 18 27.8878C14.585 27.8878 11.8125 25.1153 11.8125 21.7003Z" fill="white"/>
</svg>
