<svg width="42" height="42" viewBox="0 0 42 42" fill="none" xmlns="http://www.w3.org/2000/svg">
<path d="M35.093 0.446766C35.6625 0.868641 36 1.54364 36 2.2538V7.3163V25.8788C36 28.9866 32.9766 31.5038 29.25 31.5038C25.5234 31.5038 22.5 28.9866 22.5 25.8788C22.5 25.8788 25.5234 20.2538 29.25 20.2538C30.0375 20.2538 30.7969 20.3663 31.5 20.5772V10.3397L13.5 15.7397V30.3788C13.5 33.4866 10.4766 36.0038 6.75 36.0038C3.02344 36.0038 0 33.4866 0 30.3788C0 30.3788 3.02344 24.7538 6.75 24.7538C7.5375 24.7538 8.29688 24.8663 9 25.0772V14.0663V9.0038C9 8.01239 9.65391 7.13348 10.6031 6.8452L33.1031 0.0952034C33.7852 -0.108703 34.5234 0.0178597 35.093 0.446766Z" fill="white"/>
</svg>
