<svg width="27" height="27" viewBox="0 0 27 27" fill="none" xmlns="http://www.w3.org/2000/svg">
<g filter="url(#filter0_d_18_11378)">
<circle cx="13.1857" cy="12.1857" r="11.1857" fill="#d93e8a"/>
</g>
<path d="M13.6855 6C11.6501 6 9.99414 7.53768 9.99414 9.42773C9.99414 11.3178 11.6501 12.8555 13.6855 12.8555C15.721 12.8555 17.377 11.3178 17.377 9.42773C17.377 7.53768 15.721 6 13.6855 6Z" fill="white"/>
<path d="M18.2784 15.0948C17.2677 14.1419 15.928 13.6172 14.5059 13.6172H12.8652C11.4431 13.6172 10.1034 14.1419 9.09273 15.0948C8.08705 16.043 7.5332 17.2946 7.5332 18.6191C7.5332 18.8295 7.71684 19 7.94336 19H19.4277C19.6543 19 19.8379 18.8295 19.8379 18.6191C19.8379 17.2946 19.284 16.043 18.2784 15.0948Z" fill="white"/>
<defs>
<filter id="filter0_d_18_11378" x="0" y="0" width="26.3713" height="26.3715" filterUnits="userSpaceOnUse" color-interpolation-filters="sRGB">
<feFlood flood-opacity="0" result="BackgroundImageFix"/>
<feColorMatrix in="SourceAlpha" type="matrix" values="0 0 0 0 0 0 0 0 0 0 0 0 0 0 0 0 0 0 127 0" result="hardAlpha"/>
<feOffset dy="1"/>
<feGaussianBlur stdDeviation="1"/>
<feColorMatrix type="matrix" values="0 0 0 0 0 0 0 0 0 0 0 0 0 0 0 0 0 0 0.15 0"/>
<feBlend mode="normal" in2="BackgroundImageFix" result="effect1_dropShadow_18_11378"/>
<feBlend mode="normal" in="SourceGraphic" in2="effect1_dropShadow_18_11378" result="shape"/>
</filter>
</defs>
</svg>
