<svg width="32" height="43" viewBox="0 0 32 43" fill="none" xmlns="http://www.w3.org/2000/svg">
<path d="M18.7678 16.4951C18.7561 14.3447 19.7288 12.7217 21.6975 11.5264C20.5959 9.9502 18.9319 9.08301 16.7346 8.91309C14.6545 8.74902 12.3811 10.126 11.5491 10.126C10.6702 10.126 8.65454 8.97168 7.07251 8.97168C3.80298 9.02441 0.328369 11.5791 0.328369 16.7764C0.328369 18.3115 0.609619 19.8975 1.17212 21.5342C1.92212 23.6846 4.62915 28.958 7.45337 28.8701C8.92993 28.835 9.9729 27.8213 11.8948 27.8213C13.7581 27.8213 14.7249 28.8701 16.3713 28.8701C19.219 28.8291 21.6682 24.0361 22.3831 21.8799C18.5627 20.0811 18.7678 16.6064 18.7678 16.4951ZM15.4514 6.87402C17.051 4.97559 16.9045 3.24707 16.8577 2.62598C15.4456 2.70801 13.8108 3.58691 12.8792 4.6709C11.8538 5.83105 11.2502 7.2666 11.3792 8.88379C12.9084 9.00098 14.303 8.21582 15.4514 6.87402Z" fill="white"/>
</svg>
