<svg width="98" height="98" viewBox="0 0 98 98" fill="none" xmlns="http://www.w3.org/2000/svg">
<path d="M27.5 53.75C27.5 55.82 25.82 57.5 23.75 57.5H18.75C16.68 57.5 15 55.82 15 53.75C15 51.68 16.68 50 18.75 50H23.75C25.82 50 27.5 51.68 27.5 53.75ZM28.75 35H18.75C16.68 35 15 36.68 15 38.75C15 40.82 16.68 42.5 18.75 42.5H28.75C30.82 42.5 32.5 40.82 32.5 38.75C32.5 36.68 30.82 35 28.75 35ZM18.75 27.5H43.75C45.82 27.5 47.5 25.82 47.5 23.75C47.5 21.68 45.82 20 43.75 20H18.75C16.68 20 15 21.68 15 23.75C15 25.82 16.68 27.5 18.75 27.5ZM71.49 45.755L60.42 54.095L56.01 50.76C54.365 49.51 52.015 49.835 50.755 51.49C49.505 53.14 49.83 55.49 51.485 56.74L58.15 61.79C58.82 62.3 59.615 62.55 60.415 62.55C61.21 62.55 62.005 62.295 62.675 61.795L76.01 51.75C77.665 50.5 77.99 48.15 76.745 46.495C75.495 44.845 73.145 44.515 71.49 45.76V45.755ZM96.4 81.4C95.67 82.13 94.71 82.5 93.75 82.5C92.79 82.5 91.83 82.135 91.1 81.4L83.915 74.215C82.015 76.085 79.855 77.685 77.505 78.975V83.75C77.505 91.335 71.34 97.5 63.755 97.5H13.75C6.165 97.5 0 91.335 0 83.75V13.75C0 6.165 6.165 0 13.75 0H63.75C71.335 0 77.5 6.165 77.5 13.75V28.51C86.43 33.395 92.5 42.875 92.5 53.75C92.5 59.035 91.04 63.98 88.54 68.24L96.4 76.1C97.865 77.565 97.865 79.935 96.4 81.4ZM70 81.79C67.985 82.24 65.9 82.495 63.75 82.495C47.9 82.495 35 69.6 35 53.745C35 37.89 47.9 24.995 63.75 24.995C65.9 24.995 67.985 25.25 70 25.7V13.745C70 10.3 67.195 7.495 63.75 7.495H13.75C10.305 7.495 7.5 10.3 7.5 13.745V83.745C7.5 87.19 10.305 89.995 13.75 89.995H63.75C67.195 89.995 70 87.19 70 83.745V81.79ZM85 53.745C85 42.03 75.465 32.495 63.75 32.495C52.035 32.495 42.5 42.03 42.5 53.745C42.5 65.46 52.035 74.995 63.75 74.995C75.465 74.995 85 65.465 85 53.745Z" fill="url(#paint0_linear_2598_8326)"/>
<defs>
<linearGradient id="paint0_linear_2598_8326" x1="0" y1="0" x2="97.5" y2="97.4987" gradientUnits="userSpaceOnUse">
<stop stop-color="#F0015F"/>
<stop offset="0.341911" stop-color="#ED006A"/>
<stop offset="0.609169" stop-color="#D602AF"/>
<stop offset="1" stop-color="#C301EA"/>
</linearGradient>
</defs>
</svg>
