<svg width="40" height="40" viewBox="0 0 40 40" fill="none" xmlns="http://www.w3.org/2000/svg">
<g clip-path="url(#clip0_864_4949)">
<path d="M16.474 29.0916C15.4004 28.3277 13.6606 26.7831 13.6394 24.8227C9.76937 26.3418 5.8443 27.8779 5.8443 27.8779C3.23883 28.7308 1.48633 31.1368 1.48633 33.8738V37.1456C1.48633 38.6901 2.74234 39.9462 4.28695 39.9462H17.3905C17.3905 39.8825 17.9931 31.4509 18.1162 29.7578L17.8446 29.342C17.4233 29.4605 16.9042 29.398 16.474 29.0916Z" fill="white"/>
<path d="M34.1008 27.8482C33.7323 27.6901 35.3803 28.3508 26.6707 24.9415C26.5773 26.8468 24.8885 28.3405 23.8404 29.0915C23.4402 29.3765 22.9647 29.4538 22.5376 29.3588C22.4731 29.4587 22.3594 29.6347 22.2788 29.7577C22.4805 32.5959 22.0762 26.8687 23.0002 39.8867L23.0044 39.9461H35.7176C37.2622 39.9461 38.514 38.69 38.514 37.1455V33.8737C38.514 29.1572 34.1433 27.881 34.1008 27.8482Z" fill="white"/>
<path d="M21.7825 28.9642C21.6121 28.8166 21.6957 28.8803 20.1572 26.9698C18.7146 28.7691 18.7341 28.7708 18.5829 28.9217C18.7951 29.2442 18.9521 29.4904 18.9818 29.5328C18.9521 29.902 18.2393 39.9419 18.2393 39.9461H22.1559C21.3411 28.5569 21.7443 34.1454 21.4133 29.5328C21.5532 29.3207 21.6764 29.1339 21.7825 28.9642Z" fill="white"/>
<path d="M28.0753 12.0416C28.6397 9.21976 29.8236 7.31875 28.7076 5.02304C27.5407 2.62976 26.0173 2.97773 27.2139 1.65805C27.2309 1.64109 27.2182 1.60719 27.1927 1.60297C26.2357 1.44328 26.185 2.45601 25.716 2.04008C21.5585 -1.64727 18.0828 0.94828 14.8953 0.851873C14.0424 0.826405 13.5205 0.677889 13.6096 0.805154C14.051 1.46289 14.662 1.88297 15.3239 2.30305C15.3452 2.31578 15.3409 2.35398 15.3155 2.3625C14.4201 2.63828 13.5587 2.71461 12.6803 2.73586C12.6507 2.73586 12.6379 2.77406 12.6592 2.79101C13.0538 3.18992 13.4739 3.53789 14.0467 3.73312C14.0722 3.74164 14.0764 3.77976 14.0553 3.7925C12.6592 4.72609 11.9505 6.11359 11.1443 7.42484C10.9321 7.76859 11.959 6.71617 12.5404 6.83078C12.5914 6.84351 12.655 6.88172 12.672 6.92414C12.6847 6.95383 12.6381 7.02601 12.5999 7.05992C11.1232 8.25656 11.9421 9.61015 12.5362 11.8762V11.8847C12.5107 11.8932 12.4853 11.9059 12.4598 11.9186C10.9703 12.7206 10.8473 14.0997 11.1953 15.0332C11.5729 16.0516 12.4555 16.722 13.3467 16.7263C13.9407 18.602 14.73 20.0659 15.7611 21.1777C15.7385 21.3582 15.8543 20.9497 14.4924 24.6106C14.3693 26.2994 16.0242 27.7295 16.9663 28.3999C17.31 28.6461 17.7853 28.5781 18.0526 28.2472L20.1616 25.6077L22.2621 28.2429C22.5252 28.5738 23.0004 28.646 23.3484 28.3998C24.2904 27.7252 25.9368 26.2994 25.8181 24.6105L24.5663 21.271C24.5663 21.271 24.545 21.3092 24.5153 21.3644C24.5068 21.3262 24.5026 21.2965 24.4941 21.2583C25.6483 19.9726 26.48 18.2752 26.9722 16.7305C28.2622 16.7051 29.0006 15.7164 29.1746 14.6725C29.3357 13.6753 28.9919 12.5635 28.0753 12.0416ZM20.1614 25.4592C18.4683 24.844 17.1528 23.3375 16.4145 22.3106C16.4442 22.1663 16.4739 22.0305 16.5036 21.8821C19.0433 24.0108 21.7389 23.7219 23.7598 21.9797C23.7853 22.1197 23.8149 22.2512 23.8446 22.3828C23.0978 23.4054 21.8078 24.8566 20.1614 25.4592Z" fill="white"/>
</g>
<defs>
<clipPath id="clip0_864_4949">
<rect width="40" height="40" fill="white"/>
</clipPath>
</defs>
</svg>
