<svg width="40" height="40" viewBox="0 0 40 40" fill="none" xmlns="http://www.w3.org/2000/svg">
<g clip-path="url(#clip0_864_4920)">
<path d="M21.5 7.4375C21.5 7.164 21.3913 6.90169 21.198 6.7083C21.0046 6.5149 20.7423 6.40625 20.4687 6.40625C20.1952 6.40625 19.9329 6.5149 19.7395 6.7083C19.5461 6.90169 19.4375 7.164 19.4375 7.4375V8.4375H21.5V7.4375Z" fill="white"/>
<path d="M11.7188 7.25969V7.11531C11.7185 6.92733 11.6437 6.74712 11.5108 6.6142C11.3779 6.48128 11.1977 6.4065 11.0097 6.40625H9.53125V7.96875H11.0097C11.1977 7.9685 11.3779 7.89372 11.5108 7.7608C11.6437 7.62788 11.7185 7.44767 11.7188 7.25969Z" fill="white"/>
<path d="M39.9034 4.2875C39.4752 1.7625 37.7815 0 35.7815 0H7.65647C5.33147 0 3.43772 2.45312 3.43772 5.46875V34.0625H1.4846C1.28059 34.0626 1.07904 34.1071 0.893951 34.1929C0.708859 34.2787 0.544652 34.4038 0.412724 34.5594C0.279788 34.7173 0.18272 34.9022 0.128226 35.1013C0.0737321 35.3004 0.0631119 35.5089 0.0970991 35.7125C0.525224 38.2375 2.21897 40 4.21897 40H28.2815C30.6065 40 32.5002 37.5469 32.5002 34.5312V5.9375H38.5159C38.7199 5.93739 38.9214 5.89289 39.1065 5.80709C39.2916 5.72129 39.4558 5.59624 39.5877 5.44063C39.7207 5.28272 39.8177 5.09783 39.8722 4.89874C39.9267 4.69965 39.9373 4.4911 39.9034 4.2875ZM18.5002 7.4375C18.5002 7.17896 18.5511 6.92295 18.6501 6.68409C18.749 6.44523 18.894 6.2282 19.0769 6.04538C19.2597 5.86257 19.4767 5.71755 19.7156 5.61861C19.9544 5.51967 20.2104 5.46875 20.469 5.46875C20.7275 5.46875 20.9835 5.51967 21.2224 5.61861C21.4612 5.71755 21.6783 5.86257 21.8611 6.04538C22.0439 6.2282 22.1889 6.44523 22.2879 6.68409C22.3868 6.92295 22.4377 7.17896 22.4377 7.4375V10.9375C22.4377 11.0618 22.3883 11.181 22.3004 11.269C22.2125 11.3569 22.0933 11.4062 21.969 11.4062C21.8447 11.4062 21.7254 11.3569 21.6375 11.269C21.5496 11.181 21.5002 11.0618 21.5002 10.9375V9.375H19.4377V10.9375C19.4377 11.0618 19.3883 11.181 19.3004 11.269C19.2125 11.3569 19.0933 11.4062 18.969 11.4062C18.8447 11.4062 18.7254 11.3569 18.6375 11.269C18.5496 11.181 18.5002 11.0618 18.5002 10.9375V7.4375ZM13.5002 5.9375C13.5002 5.81318 13.5496 5.69395 13.6375 5.60604C13.7254 5.51814 13.8447 5.46875 13.969 5.46875C14.0933 5.46875 14.2125 5.51814 14.3004 5.60604C14.3883 5.69395 14.4377 5.81318 14.4377 5.9375V10.4688H16.969C17.0933 10.4688 17.2125 10.5181 17.3004 10.606C17.3883 10.694 17.4377 10.8132 17.4377 10.9375C17.4377 11.0618 17.3883 11.181 17.3004 11.269C17.2125 11.3569 17.0933 11.4062 16.969 11.4062H14.4377C14.1891 11.4062 13.9506 11.3075 13.7748 11.1317C13.599 10.9558 13.5002 10.7174 13.5002 10.4688V5.9375ZM8.59397 6.40625C8.59397 6.15761 8.69275 5.91915 8.86856 5.74334C9.04438 5.56752 9.28283 5.46875 9.53147 5.46875H11.0099C11.4465 5.46925 11.865 5.64288 12.1737 5.95156C12.4823 6.26025 12.656 6.67877 12.6565 7.11531V7.25969C12.656 7.69623 12.4823 8.11475 12.1737 8.42344C11.865 8.73212 11.4465 8.90575 11.0099 8.90625H9.53147V10.9375C9.53147 11.0618 9.48209 11.181 9.39418 11.269C9.30627 11.3569 9.18704 11.4062 9.06272 11.4062C8.9384 11.4062 8.81918 11.3569 8.73127 11.269C8.64336 11.181 8.59397 11.0618 8.59397 10.9375V6.40625ZM10.6252 24.2188C10.3471 24.2188 10.0752 24.1363 9.84395 23.9818C9.6127 23.8272 9.43245 23.6076 9.32602 23.3506C9.21958 23.0937 9.19173 22.8109 9.24599 22.5382C9.30025 22.2654 9.43419 22.0148 9.63086 21.8181C9.82752 21.6215 10.0781 21.4875 10.3509 21.4333C10.6237 21.379 10.9064 21.4069 11.1634 21.5133C11.4203 21.6197 11.64 21.8 11.7945 22.0312C11.949 22.2625 12.0315 22.5344 12.0315 22.8125C12.0315 23.1855 11.8833 23.5431 11.6196 23.8069C11.3559 24.0706 10.9982 24.2188 10.6252 24.2188ZM12.0315 29.375C12.0315 29.6531 11.949 29.925 11.7945 30.1563C11.64 30.3875 11.4203 30.5678 11.1634 30.6742C10.9064 30.7806 10.6237 30.8085 10.3509 30.7542C10.0781 30.7 9.82752 30.566 9.63086 30.3694C9.43419 30.1727 9.30025 29.9221 9.24599 29.6493C9.19173 29.3766 9.21958 29.0938 9.32602 28.8369C9.43245 28.5799 9.6127 28.3603 9.84395 28.2057C10.0752 28.0512 10.3471 27.9688 10.6252 27.9688C10.9982 27.9688 11.3559 28.1169 11.6196 28.3806C11.8833 28.6444 12.0315 29.002 12.0315 29.375ZM10.6252 17.6562C10.3471 17.6562 10.0752 17.5738 9.84395 17.4193C9.6127 17.2647 9.43245 17.0451 9.32602 16.7881C9.21958 16.5312 9.19173 16.2484 9.24599 15.9757C9.30025 15.7029 9.43419 15.4523 9.63086 15.2556C9.82752 15.059 10.0781 14.925 10.3509 14.8708C10.6237 14.8165 10.9064 14.8444 11.1634 14.9508C11.4203 15.0572 11.64 15.2375 11.7945 15.4687C11.949 15.7 12.0315 15.9719 12.0315 16.25C12.0315 16.623 11.8833 16.9806 11.6196 17.2444C11.3559 17.5081 10.9982 17.6562 10.6252 17.6562ZM4.21897 39.0625C2.7096 39.0625 1.36585 37.5875 1.0221 35.5563C1.01094 35.4873 1.01464 35.4168 1.03297 35.3494C1.05129 35.2821 1.08381 35.2194 1.12835 35.1656C1.17204 35.1137 1.22658 35.072 1.28812 35.0433C1.34967 35.0147 1.41673 34.9999 1.4846 35H23.6534C23.7671 35 23.877 35.0416 23.9622 35.117C24.0474 35.1925 24.102 35.2964 24.1158 35.4094C24.2511 36.805 24.8898 38.1036 25.9127 39.0625H4.21897ZM27.0315 29.9625C27.0315 30.0968 26.9781 30.2255 26.8832 30.3205C26.7883 30.4154 26.6595 30.4688 26.5252 30.4688H16.9127C16.7785 30.4688 16.6497 30.4154 16.5548 30.3205C16.4598 30.2255 16.4065 30.0968 16.4065 29.9625V28.7875C16.4065 28.6532 16.4598 28.5245 16.5548 28.4295C16.6497 28.3346 16.7785 28.2812 16.9127 28.2812H26.5252C26.6595 28.2812 26.7883 28.3346 26.8832 28.4295C26.9781 28.5245 27.0315 28.6532 27.0315 28.7875V29.9625ZM27.0315 23.4C27.0315 23.5343 26.9781 23.663 26.8832 23.758C26.7883 23.8529 26.6595 23.9062 26.5252 23.9062H16.9127C16.7785 23.9062 16.6497 23.8529 16.5548 23.758C16.4598 23.663 16.4065 23.5343 16.4065 23.4V22.225C16.4065 22.0907 16.4598 21.962 16.5548 21.867C16.6497 21.7721 16.7785 21.7188 16.9127 21.7188H26.5252C26.6595 21.7188 26.7883 21.7721 26.8832 21.867C26.9781 21.962 27.0315 22.0907 27.0315 22.225V23.4ZM27.0315 16.8375C27.0315 16.9718 26.9781 17.1005 26.8832 17.1955C26.7883 17.2904 26.6595 17.3438 26.5252 17.3438H16.9127C16.7785 17.3438 16.6497 17.2904 16.5548 17.1955C16.4598 17.1005 16.4065 16.9718 16.4065 16.8375V15.6625C16.4065 15.5282 16.4598 15.3995 16.5548 15.3045C16.6497 15.2096 16.7785 15.1562 16.9127 15.1562H26.5252C26.6595 15.1562 26.7883 15.2096 26.8832 15.3045C26.9781 15.3995 27.0315 15.5282 27.0315 15.6625V16.8375ZM27.6565 10.775C27.6565 10.9147 27.6097 11.0503 27.5235 11.1603C27.4374 11.2703 27.3169 11.3482 27.1813 11.3817C27.0457 11.4152 26.9028 11.4023 26.7754 11.3451C26.648 11.2878 26.5434 11.1896 26.4784 11.0659L24.5315 7.36594V10.9375C24.5315 11.0618 24.4821 11.181 24.3942 11.269C24.3063 11.3569 24.187 11.4062 24.0627 11.4062C23.9384 11.4062 23.8192 11.3569 23.7313 11.269C23.6434 11.181 23.594 11.0618 23.594 10.9375V6.10094C23.594 5.96126 23.6408 5.8256 23.7269 5.71563C23.813 5.60566 23.9335 5.52771 24.0691 5.49422C24.2047 5.46073 24.3477 5.47364 24.4751 5.53087C24.6025 5.58811 24.7071 5.68638 24.7721 5.81L26.719 9.50906V5.9375C26.719 5.81318 26.7684 5.69395 26.8563 5.60604C26.9442 5.51814 27.0634 5.46875 27.1877 5.46875C27.312 5.46875 27.4313 5.51814 27.5192 5.60604C27.6071 5.69395 27.6565 5.81318 27.6565 5.9375V10.775ZM38.8721 4.83437C38.8284 4.88631 38.7739 4.92805 38.7123 4.95666C38.6508 4.98527 38.5837 5.00006 38.5159 5H32.519C32.6877 2.72187 34.0877 0.9375 35.7815 0.9375C37.2908 0.9375 38.6346 2.4125 38.9784 4.44375C38.9895 4.51267 38.9858 4.58318 38.9675 4.65056C38.9492 4.71793 38.9166 4.7806 38.8721 4.83437Z" fill="white"/>
</g>
<defs>
<clipPath id="clip0_864_4920">
<rect width="40" height="40" fill="white"/>
</clipPath>
</defs>
</svg>
