<svg width="40" height="40" viewBox="0 0 40 40" fill="none" xmlns="http://www.w3.org/2000/svg">
<path d="M5.66465 35.0483V30.7424H1.77643C1.2941 30.7424 1.01176 31.2718 1.27644 31.6719L3.14699 34.4483C3.28816 34.6484 3.28816 34.913 3.14699 35.1131L1.27644 37.8954C1.01176 38.2895 1.2941 38.8247 1.77643 38.8247H7.98234C8.3176 38.8247 8.58228 38.5601 8.58228 38.2247V36.2366H6.8529C6.19408 36.2366 5.66465 35.7071 5.66465 35.0483Z" fill="white"/>
<path d="M36.8528 35.1131C36.7175 34.9131 36.7175 34.6484 36.8528 34.4483L38.7234 31.6719C38.9881 31.2718 38.7057 30.7424 38.2234 30.7424L34.3351 30.7365V35.0484C34.3351 35.7071 33.8058 36.2366 33.1469 36.2366H31.4175V38.2248C31.4175 38.5601 31.688 38.8248 32.0175 38.8248H38.2234C38.7057 38.8248 38.9881 38.2895 38.7234 37.8955L36.8528 35.1131Z" fill="white"/>
<path d="M11.0217 13.1453L5.66846 17.0338C5.86276 19.3507 6.59346 21.5148 7.74179 23.3981H14.3693L16.2367 21.3638L14.063 14.6731L11.0217 13.1453Z" fill="white"/>
<path d="M20.234 10.5212L14.6504 14.5777L16.783 21.1419H23.685L25.8177 14.5777L20.234 10.5212Z" fill="white"/>
<path d="M20.5283 10.0078L26.1915 14.1222L29.3187 12.5513L31.3465 6.29933C29.8694 4.57269 27.9994 3.193 25.8718 2.30304L20.5283 6.18272V10.0078Z" fill="white"/>
<path d="M29.4028 13.1673L26.4052 14.6731L24.2314 21.3638L26.103 23.4027C26.1081 23.4024 26.1118 23.3981 26.1169 23.3981H32.7263C33.8666 21.5281 34.5955 19.3813 34.796 17.0829L29.4028 13.1673Z" fill="white"/>
<path d="M34.8406 16.3879C34.8484 16.1916 34.8555 15.995 34.8555 15.7968C34.8555 12.422 33.709 9.31663 31.7885 6.84219L29.8643 12.7751L34.8406 16.3879Z" fill="white"/>
<path d="M25.2206 2.04857C23.6643 1.48403 21.9853 1.17526 20.2341 1.17526C18.4828 1.17526 16.8038 1.48403 15.2476 2.04857L20.2318 5.67061L25.2206 2.04857Z" fill="white"/>
<path d="M32.3471 23.9836H26.3294L25.3823 26.9012H29.7412C30.7353 26.0542 31.6118 25.0719 32.3471 23.9836Z" fill="white"/>
<path d="M16.6999 21.7307L14.7705 23.8306L15.7706 26.9012H24.7646L25.747 23.8836L23.7705 21.7307H16.6999Z" fill="white"/>
<path d="M14.2767 14.1222L19.9399 10.0078V6.18561L14.5969 2.30276C12.4743 3.19058 10.6079 4.56609 9.13232 6.287L11.171 12.5621L14.2767 14.1222Z" fill="white"/>
<path d="M10.6041 12.7214L8.68977 6.8287C6.76293 9.30544 5.6123 12.4158 5.6123 15.7969C5.6123 15.9779 5.61941 16.1575 5.62595 16.3371L10.6041 12.7214Z" fill="white"/>
<path d="M8.11768 23.9836C8.85297 25.0719 9.72943 26.0483 10.7236 26.9012H15.153L14.2059 23.9836H8.11768Z" fill="white"/>
<path d="M6.84997 35.6496H33.1499C33.4764 35.6496 33.7484 35.3837 33.7484 35.0511V28.0862C33.7484 27.7535 33.4764 27.4876 33.1499 27.4876H6.84997C6.52354 27.4876 6.25146 27.7535 6.25146 28.0862V35.0511C6.25146 35.3837 6.52354 35.6496 6.84997 35.6496ZM25.3188 29.4296C25.3188 29.3403 25.3492 29.2639 25.4104 29.2004C25.4716 29.137 25.5468 29.1051 25.6364 29.1051H27.3023C27.8059 29.1051 28.1953 29.2205 28.4705 29.4509C28.7459 29.6815 28.8835 29.992 28.8835 30.3827C28.8835 30.6558 28.8186 30.8827 28.6894 31.064C28.5598 31.2452 28.3941 31.3805 28.1916 31.4698C28.4739 31.5591 28.7057 31.7027 28.887 31.9003C29.0682 32.098 29.1587 32.3476 29.1587 32.6486C29.1587 33.0817 29.0128 33.4203 28.7212 33.6651C28.4291 33.9098 27.9704 34.0321 27.3446 34.0321H25.6364C25.5468 34.0321 25.4716 34.0017 25.4104 33.9405C25.3492 33.8793 25.3188 33.8041 25.3188 33.7145V29.4296ZM19.9327 29.3946C19.9327 29.3053 19.9632 29.2286 20.0244 29.1651C20.0856 29.1016 20.1608 29.0698 20.2504 29.0698C20.3397 29.0698 20.4161 29.1016 20.4799 29.1651C20.5434 29.2286 20.575 29.3053 20.575 29.3946V32.2039C20.575 32.4863 20.6396 32.7261 20.7691 32.924C20.8987 33.1216 21.0693 33.2698 21.281 33.3686C21.4927 33.4674 21.7187 33.5168 21.9585 33.5168C22.1987 33.5168 22.4244 33.4674 22.6364 33.3686C22.8481 33.2698 23.0187 33.1216 23.1479 32.924C23.2775 32.7261 23.3421 32.4863 23.3421 32.2039V29.3946C23.3421 29.3053 23.3728 29.2286 23.434 29.1651C23.4949 29.1016 23.5704 29.0698 23.6598 29.0698C23.7491 29.0698 23.8258 29.1016 23.8893 29.1651C23.9527 29.2286 23.9846 29.3053 23.9846 29.3946V32.1827C23.9846 32.6018 23.8858 32.9556 23.6879 33.2451C23.4903 33.5344 23.2364 33.7498 22.9256 33.8908C22.6151 34.0321 22.2926 34.1028 21.9585 34.1028C21.6245 34.1028 21.3022 34.0321 20.9915 33.8908C20.681 33.7498 20.4268 33.5344 20.2292 33.2451C20.0316 32.9556 19.9327 32.6018 19.9327 32.1827V29.3946ZM16.0434 29.3946C16.0434 29.3053 16.0739 29.2286 16.1351 29.1651C16.1962 29.1016 16.2715 29.0698 16.3611 29.0698C16.4504 29.0698 16.5268 29.1016 16.5906 29.1651C16.6541 29.2286 16.6857 29.3053 16.6857 29.3946V33.3899H18.9941C19.0834 33.3899 19.1598 33.4215 19.2233 33.485C19.2871 33.5487 19.3187 33.6251 19.3187 33.7145C19.3187 33.8041 19.2871 33.8793 19.2233 33.9405C19.1598 34.0017 19.0834 34.0321 18.9941 34.0321H16.4881C16.3657 34.0321 16.2612 33.9888 16.1741 33.9014C16.0868 33.8144 16.0434 33.7099 16.0434 33.5875V29.3946ZM11.1624 30.2238C11.3763 29.8404 11.6705 29.5463 12.0447 29.3415C12.4187 29.137 12.8412 29.0344 13.3117 29.0344C13.6316 29.0344 13.9177 29.0723 14.1693 29.1473C14.4212 29.2228 14.6717 29.3308 14.9213 29.4722C15.0247 29.5287 15.0764 29.6181 15.0764 29.7404C15.0764 29.8111 15.0505 29.8734 14.9988 29.9274C14.9468 29.9817 14.8787 30.0087 14.794 30.0087C14.7469 30.0087 14.7047 29.9992 14.6671 29.9803C14.46 29.8723 14.2575 29.7898 14.0599 29.7332C13.8623 29.6769 13.6339 29.6485 13.3751 29.6485C12.9704 29.6485 12.6258 29.7321 12.3411 29.8993C12.0565 30.0664 11.8422 30.2945 11.6989 30.584C11.5553 30.8732 11.4835 31.2015 11.4835 31.5686C11.4835 31.9357 11.5553 32.264 11.6989 32.5532C11.8422 32.8427 12.0565 33.0711 12.3411 33.238C12.6258 33.4051 12.9704 33.4887 13.3751 33.4887C13.6339 33.4887 13.8623 33.4603 14.0599 33.404C14.2575 33.3474 14.46 33.2652 14.6671 33.157C14.7047 33.138 14.7469 33.1285 14.794 33.1285C14.8787 33.1285 14.9468 33.1547 14.9988 33.2064C15.0505 33.2581 15.0764 33.3215 15.0764 33.3968C15.0764 33.5191 15.0247 33.6085 14.9213 33.6651C14.6717 33.8064 14.4212 33.9147 14.1693 33.9899C13.9177 34.0649 13.6316 34.1028 13.3117 34.1028C12.8412 34.1028 12.4187 34.0002 12.0447 33.7957C11.6705 33.591 11.3763 33.2968 11.1624 32.9134C10.9481 32.5299 10.8412 32.0816 10.8412 31.5686C10.8412 31.0556 10.9481 30.6076 11.1624 30.2238Z" fill="white"/>
<path d="M28.2516 33.2205C28.4423 33.0791 28.5376 32.8792 28.5376 32.6204C28.5376 32.0839 28.1212 31.8156 27.2882 31.8156H25.9609V33.4321H27.281C27.7374 33.4321 28.0611 33.3615 28.2516 33.2205Z" fill="white"/>
<path d="M28.0152 31.0252C28.1846 30.8839 28.2694 30.6863 28.2694 30.4321C28.2694 30.2109 28.1786 30.0346 27.9974 29.9027C27.8164 29.7712 27.568 29.7051 27.2529 29.7051H25.9609V31.2369H27.1328C27.5516 31.2369 27.8457 31.1662 28.0152 31.0252Z" fill="white"/>
</svg>
