<svg width="52" height="48" viewBox="0 0 52 48" fill="none" xmlns="http://www.w3.org/2000/svg">
<path d="M13.5407 38.1818C10.0718 38.1818 6.9864 35.9455 5.8662 32.616L5.79037 32.3651C5.52603 31.4836 5.41552 30.7418 5.41552 30V15.1244L0.159062 32.7927C-0.516955 35.3913 1.02358 38.0858 3.60848 38.8036L37.1125 47.8385C37.5306 47.9476 37.9488 48 38.3605 48C40.5186 48 42.4903 46.5578 43.0428 44.4327L44.995 38.1818H13.5407Z" fill="url(#paint0_linear_4001_3780)"/>
<path d="M19.4992 15.2727C21.8891 15.2727 23.8326 13.3156 23.8326 10.9091C23.8326 8.50255 21.8891 6.54545 19.4992 6.54545C17.1093 6.54545 15.1658 8.50255 15.1658 10.9091C15.1658 13.3156 17.1093 15.2727 19.4992 15.2727Z" fill="url(#paint1_linear_4001_3780)"/>
<path d="M46.5832 0H14.0824C11.0967 0 8.6656 2.448 8.6656 5.45455V29.4545C8.6656 32.4611 11.0967 34.9091 14.0824 34.9091H46.5832C49.5689 34.9091 52 32.4611 52 29.4545V5.45455C52 2.448 49.5689 0 46.5832 0ZM14.0824 4.36364H46.5832C47.1812 4.36364 47.6666 4.85236 47.6666 5.45455V20.9433L40.8219 12.9011C40.096 12.0436 39.0452 11.5855 37.9163 11.5593C36.794 11.5658 35.7409 12.0676 35.0216 12.936L26.9744 22.6625L24.3527 20.0291C22.8706 18.5367 20.4591 18.5367 18.9792 20.0291L12.999 26.0487V5.45455C12.999 4.85236 13.4844 4.36364 14.0824 4.36364Z" fill="url(#paint2_linear_4001_3780)"/>
<defs>
<linearGradient id="paint0_linear_4001_3780" x1="0" y1="0" x2="47.8466" y2="51.8339" gradientUnits="userSpaceOnUse">
<stop stop-color="#F0015F"/>
<stop offset="0.341911" stop-color="#ED006A"/>
<stop offset="0.609169" stop-color="#D602AF"/>
<stop offset="1" stop-color="#C301EA"/>
</linearGradient>
<linearGradient id="paint1_linear_4001_3780" x1="0" y1="0" x2="47.8466" y2="51.8339" gradientUnits="userSpaceOnUse">
<stop stop-color="#F0015F"/>
<stop offset="0.341911" stop-color="#ED006A"/>
<stop offset="0.609169" stop-color="#D602AF"/>
<stop offset="1" stop-color="#C301EA"/>
</linearGradient>
<linearGradient id="paint2_linear_4001_3780" x1="0" y1="0" x2="47.8466" y2="51.8339" gradientUnits="userSpaceOnUse">
<stop stop-color="#F0015F"/>
<stop offset="0.341911" stop-color="#ED006A"/>
<stop offset="0.609169" stop-color="#D602AF"/>
<stop offset="1" stop-color="#C301EA"/>
</linearGradient>
</defs>
</svg>
