<svg width="75" height="60" viewBox="0 0 75 60" fill="none" xmlns="http://www.w3.org/2000/svg">
<path d="M16.875 0C22.0492 0 26.25 4.2008 26.25 9.375C26.25 14.5492 22.0492 18.75 16.875 18.75C11.7008 18.75 7.5 14.5492 7.5 9.375C7.5 4.2008 11.7008 0 16.875 0ZM60 0C65.1742 0 69.375 4.2008 69.375 9.375C69.375 14.5492 65.1742 18.75 60 18.75C54.8258 18.75 50.625 14.5492 50.625 9.375C50.625 4.2008 54.8258 0 60 0ZM0 35.0039C0 28.1016 5.60156 22.5 12.5039 22.5H17.5078C19.3711 22.5 21.1406 22.9102 22.7344 23.6367C22.582 24.4805 22.5117 25.3594 22.5117 26.25C22.5117 30.7266 24.4805 34.7461 27.5859 37.5C27.5625 37.5 27.5391 37.5 27.5039 37.5H2.49609C1.125 37.5 0 36.375 0 35.0039ZM47.4961 37.5C47.4727 37.5 47.4492 37.5 47.4141 37.5C50.5313 34.7461 52.4883 30.7266 52.4883 26.25C52.4883 25.3594 52.4062 24.4922 52.2656 23.6367C53.8594 22.8984 55.6289 22.5 57.4922 22.5H62.4961C69.3984 22.5 75 28.1016 75 35.0039C75 36.3867 73.875 37.5 72.5039 37.5H47.4961ZM26.25 26.25C26.25 20.041 31.291 15 37.5 15C43.709 15 48.75 20.041 48.75 26.25C48.75 32.459 43.709 37.5 37.5 37.5C31.291 37.5 26.25 32.459 26.25 26.25ZM15 56.8711C15 48.2461 21.9961 41.25 30.6211 41.25H44.3789C53.0039 41.25 60 48.2461 60 56.8711C60 58.5938 58.6055 60 56.8711 60H18.1289C16.4062 60 15 58.6055 15 56.8711Z" fill="url(#paint0_linear_4001_6568)"/>
<defs>
<linearGradient id="paint0_linear_4001_6568" x1="0" y1="0" x2="58.5366" y2="73.1707" gradientUnits="userSpaceOnUse">
<stop stop-color="#F0015F"/>
<stop offset="0.341911" stop-color="#ED006A"/>
<stop offset="0.609169" stop-color="#D602AF"/>
<stop offset="1" stop-color="#C301EA"/>
</linearGradient>
</defs>
</svg>
