<svg width="52" height="52" viewBox="0 0 52 52" fill="none" xmlns="http://www.w3.org/2000/svg">
<path d="M52 28.6897V26.8966C52 24.9161 50.3943 23.3103 48.4138 23.3103H45.7241H43.0345C41.8654 23.3103 40.837 23.8788 40.1817 24.7448L37.613 24.2921C37.6363 23.9666 37.6552 23.6412 37.6552 23.3103C37.6552 19.89 36.4538 16.7521 34.4554 14.2874L36.6241 12.5517H41.479L43.4774 16.9493C42.6669 17.6065 42.1379 18.599 42.1379 19.7241C42.1379 21.7046 43.7437 23.3103 45.7241 23.3103C47.7046 23.3103 49.3103 21.7046 49.3103 19.7241C49.3103 17.7437 47.7046 16.1379 45.7241 16.1379C45.5126 16.1379 45.3081 16.1648 45.1073 16.1998L43.4487 12.5517H47.5172V10.7586C47.5172 8.77814 45.9115 7.17241 43.931 7.17241H41.2414H38.5517C36.5712 7.17241 34.9655 8.77814 34.9655 10.7586V11.5834L33.2343 12.9686C30.6567 10.4941 27.1646 8.96552 23.3103 8.96552C19.9429 8.96552 16.8534 10.1337 14.4058 12.0766L9.52676 6.6551C9.61462 6.49283 9.68545 6.32248 9.73924 6.14228L37.8381 4.66297C38.2971 6.11359 39.6383 7.17241 41.2414 7.17241C43.2219 7.17241 44.8276 5.56669 44.8276 3.58621C44.8276 1.60572 43.2219 0 41.2414 0C39.5048 0 38.0577 1.23455 37.7269 2.87345L9.65586 4.35097C9.25241 3.37641 8.2931 2.68966 7.17241 2.68966C5.68683 2.68966 4.48276 3.89372 4.48276 5.37931C4.48276 6.31531 4.96241 7.13834 5.68772 7.61979L2.43145 20.6467C1.06869 20.7785 0 21.9135 0 23.3103C0 24.6839 1.03283 25.8037 2.36152 25.9668L4.85214 37.1746C4.09455 37.6498 3.58621 38.4872 3.58621 39.4483C3.58621 40.9339 4.79028 42.1379 6.27586 42.1379C6.73131 42.1379 7.15359 42.0142 7.53014 41.8143L14.8048 48.4828C14.5206 48.9966 14.3448 49.5784 14.3448 50.2069V52H26.8966V50.5449L36.7075 39.3963L48.7536 51.4423C49.1104 51.7992 49.5937 51.9991 50.0984 51.9991C51.1483 52 52 51.1483 52 50.0984C52 49.5937 51.7992 49.1104 51.4432 48.7536L39.225 36.5354L46.1294 28.6897H52ZM34.9655 23.3103C34.9655 29.7476 29.7476 34.9655 23.3103 34.9655C16.8731 34.9655 11.6552 29.7476 11.6552 23.3103C11.6552 16.8731 16.8731 11.6552 23.3103 11.6552C29.7476 11.6552 34.9655 16.8731 34.9655 23.3103ZM8.96641 23.2924L5.25738 22.551C5.07628 21.9386 4.69434 21.4141 4.17435 21.0699L7.43152 8.04296C7.70138 8.01696 7.96228 7.96317 8.20255 7.86276L13.0717 13.2726C10.5381 15.8564 8.9709 19.3897 8.96641 23.2924ZM26.3936 48.403C25.7705 47.3415 24.6301 46.6207 23.3103 46.6207H20.6207H17.931C17.2317 46.6207 16.5844 46.8287 16.0321 47.1757L8.75035 40.5008C8.88841 40.1772 8.96552 39.8221 8.96552 39.4483C8.96552 38.0748 7.93269 36.955 6.604 36.7918L4.11338 25.584C4.5769 25.2926 4.94986 24.8703 5.16593 24.3611L9.09641 25.1474C9.88986 31.3426 14.6263 36.2951 20.7157 37.4095L20.4692 39.4644C18.5604 39.5451 17.0345 41.106 17.0345 43.0345C17.0345 45.015 18.6402 46.6207 20.6207 46.6207C22.6012 46.6207 24.2069 45.015 24.2069 43.0345C24.2069 41.635 23.3973 40.4363 22.2291 39.8454L22.4972 37.6139C22.7679 37.6292 23.036 37.6552 23.3103 37.6552C26.5854 37.6552 29.5943 36.5452 32.0087 34.6983L35.4371 38.1268L26.3936 48.403ZM37.9546 35.265L34.6983 32.0087C36.0118 30.2918 36.9424 28.2701 37.3763 26.0708L39.494 26.4447C39.4752 26.5935 39.4483 26.7414 39.4483 26.8966V28.6897H43.741L37.9546 35.265Z" fill="url(#paint0_linear_4001_6519)"/>
<path d="M23.3103 23.3103C25.291 23.3103 26.8966 21.7047 26.8966 19.7241C26.8966 17.7435 25.291 16.1379 23.3103 16.1379C21.3297 16.1379 19.7241 17.7435 19.7241 19.7241C19.7241 21.7047 21.3297 23.3103 23.3103 23.3103Z" fill="url(#paint1_linear_4001_6519)"/>
<path d="M30.4828 26.9001C30.4828 24.9179 28.8752 23.3103 26.893 23.3103H23.3103H19.7277C17.7454 23.3103 16.1379 24.9179 16.1379 26.9001V28.6897H30.4828V26.9001Z" fill="url(#paint2_linear_4001_6519)"/>
<defs>
<linearGradient id="paint0_linear_4001_6519" x1="0" y1="0" x2="52" y2="52" gradientUnits="userSpaceOnUse">
<stop stop-color="#F0015F"/>
<stop offset="0.341911" stop-color="#ED006A"/>
<stop offset="0.609169" stop-color="#D602AF"/>
<stop offset="1" stop-color="#C301EA"/>
</linearGradient>
<linearGradient id="paint1_linear_4001_6519" x1="0" y1="0" x2="52" y2="52" gradientUnits="userSpaceOnUse">
<stop stop-color="#F0015F"/>
<stop offset="0.341911" stop-color="#ED006A"/>
<stop offset="0.609169" stop-color="#D602AF"/>
<stop offset="1" stop-color="#C301EA"/>
</linearGradient>
<linearGradient id="paint2_linear_4001_6519" x1="0" y1="0" x2="52" y2="52" gradientUnits="userSpaceOnUse">
<stop stop-color="#F0015F"/>
<stop offset="0.341911" stop-color="#ED006A"/>
<stop offset="0.609169" stop-color="#D602AF"/>
<stop offset="1" stop-color="#C301EA"/>
</linearGradient>
</defs>
</svg>
