<svg width="53" height="56" viewBox="0 0 53 56" fill="none" xmlns="http://www.w3.org/2000/svg">
<path d="M26.4712 5.21809e-06C20.4891 -0.00094188 14.6831 2.0247 9.9998 5.74666C5.31654 9.46862 2.03229 14.6674 0.682535 20.4952C-0.667221 26.3231 -0.00286579 32.4363 2.56728 37.8382C5.13743 43.2401 9.46176 47.612 14.8352 50.241C15.5968 49.1337 16.5329 48.1574 17.6072 47.35C12.7917 45.3054 8.83082 41.6594 6.39525 37.0293C3.95968 32.3993 3.19913 27.0697 4.24238 21.9432C5.28563 16.8167 8.06857 12.2083 12.1199 8.89837C16.1713 5.58841 21.2421 3.78035 26.4737 3.78035C31.7053 3.78035 36.7761 5.58841 40.8275 8.89837C44.8789 12.2083 47.6618 16.8167 48.7051 21.9432C49.7483 27.0697 48.9878 32.3993 46.5522 37.0293C44.1166 41.6594 40.1557 45.3054 35.3402 47.35C36.4036 48.1696 37.3348 49.1477 38.1012 50.25C43.4792 47.6239 47.8084 43.2525 50.3823 37.8493C52.9562 32.4461 53.6227 26.33 52.2732 20.4992C50.9237 14.6683 47.6378 9.46702 42.9518 5.74405C38.2657 2.02107 32.4562 -0.00375152 26.4712 5.21809e-06Z" fill="url(#paint0_linear_4001_6334)"/>
<path d="M26.4711 30.922C24.6507 30.9105 22.9002 31.6226 21.6048 32.9017C20.3094 34.1808 19.5752 35.9221 19.5636 37.7425C19.5521 39.563 20.2642 41.3134 21.5433 42.6088C22.8224 43.9042 24.5637 44.6385 26.3841 44.65H26.5581C28.3786 44.6385 30.1199 43.9042 31.399 42.6088C32.678 41.3134 33.3902 39.563 33.3786 37.7425C33.3671 35.9221 32.6328 34.1808 31.3374 32.9017C30.042 31.6226 28.2916 30.9105 26.4711 30.922Z" fill="url(#paint1_linear_4001_6334)"/>
<path d="M38.3152 55.9999C37.9125 53.3974 36.5925 51.0246 34.5936 49.3099C32.5948 47.5953 30.0487 46.6519 27.4152 46.6499H26.5602C26.5312 46.6499 26.5022 46.6499 26.4732 46.6499C26.4442 46.6499 26.4152 46.6499 26.3862 46.6499H25.5312C22.8967 46.6499 20.3492 47.5925 18.3493 49.3074C16.3493 51.0223 15.0291 53.3962 14.6272 55.9999H38.3152Z" fill="url(#paint2_linear_4001_6334)"/>
<path d="M24.6251 19.031L24.3881 20.412L25.6281 19.76C25.8881 19.624 26.1772 19.553 26.4706 19.553C26.764 19.553 27.0531 19.624 27.3131 19.76L28.5541 20.412L28.3171 19.032C28.2681 18.7431 28.29 18.4466 28.3807 18.1679C28.4714 17.8892 28.6284 17.6367 28.8381 17.432L29.8381 16.455L28.4521 16.255C28.1615 16.2125 27.8856 16.1001 27.648 15.9275C27.4104 15.7549 27.2183 15.5272 27.0881 15.264L26.4711 14L25.8511 15.256C25.7211 15.5193 25.5292 15.7472 25.2918 15.9199C25.0544 16.0927 24.7786 16.2053 24.4881 16.248L23.1011 16.448L24.1011 17.425C24.3123 17.63 24.4704 17.8834 24.5617 18.1632C24.653 18.443 24.6747 18.7409 24.6251 19.031Z" fill="url(#paint3_linear_4001_6334)"/>
<path d="M47.1582 26.4808C47.1626 22.68 46.1199 18.9515 44.1445 15.7045C42.169 12.4574 39.3372 9.81734 35.9599 8.07402C32.5825 6.3307 28.7901 5.55151 24.999 5.82199C21.2079 6.09246 17.5646 7.40214 14.4689 9.60728C11.3733 11.8124 8.94494 14.8278 7.45048 18.3224C5.95601 21.817 5.45318 25.6558 5.99718 29.4174C6.54117 33.179 8.11095 36.7181 10.5342 39.6461C12.9575 42.5742 16.1406 44.778 19.7342 46.0158C20.3571 45.702 21.0046 45.4395 21.6702 45.2308C20.0595 44.1946 18.8277 42.6646 18.159 40.8699C17.4904 39.0752 17.4209 37.1122 17.9609 35.2747C18.501 33.4372 19.6215 31.8239 21.1549 30.6764C22.6882 29.5288 24.5519 28.9086 26.4672 28.9086C28.3824 28.9086 30.2461 29.5288 31.7795 30.6764C33.3129 31.8239 34.4334 33.4372 34.9734 35.2747C35.5135 37.1122 35.444 39.0752 34.7753 40.8699C34.1067 42.6646 32.8749 44.1946 31.2642 45.2308C31.9314 45.4386 32.5808 45.6998 33.2062 46.0118C37.281 44.6225 40.8181 41.9914 43.3206 38.4882C45.8231 34.9851 47.1651 30.7859 47.1582 26.4808ZM26.9582 28.1208C26.81 28.2027 26.6435 28.2457 26.4742 28.2457C26.3049 28.2457 26.1383 28.2027 25.9902 28.1208L16.9262 23.1048C16.7698 23.0183 16.6395 22.8916 16.5488 22.7377C16.4581 22.5838 16.4102 22.4084 16.4102 22.2298V9.6918C16.4102 9.42658 16.5155 9.17223 16.7031 8.98469C16.8906 8.79715 17.145 8.6918 17.4102 8.6918H35.5352C35.8004 8.6918 36.0547 8.79715 36.2423 8.98469C36.4298 9.17223 36.5352 9.42658 36.5352 9.6918V22.2298C36.5352 22.4084 36.4873 22.5838 36.3965 22.7377C36.3058 22.8916 36.1755 23.0183 36.0192 23.1048L26.9582 28.1208Z" fill="url(#paint4_linear_4001_6334)"/>
<path d="M18.4072 21.6409L26.4712 26.0999L34.5352 21.6379V10.6919H18.4072V21.6409ZM20.9712 15.7589C21.0744 15.4368 21.2663 15.1502 21.5249 14.9322C21.7835 14.7141 22.0983 14.5733 22.4332 14.5259L24.0992 14.2849L24.8442 12.7739C24.9941 12.4709 25.2257 12.2159 25.5128 12.0376C25.8 11.8593 26.1312 11.7648 26.4692 11.7648C26.8072 11.7648 27.1385 11.8593 27.4256 12.0376C27.7128 12.2159 27.9443 12.4709 28.0942 12.7739L28.8392 14.2849L30.5052 14.5259C30.8393 14.5753 31.153 14.717 31.4108 14.9352C31.6686 15.1533 31.8603 15.4392 31.9643 15.7605C32.0683 16.0818 32.0804 16.4258 31.9993 16.7537C31.9182 17.0815 31.7471 17.3801 31.5052 17.6159L30.2992 18.7919L30.5842 20.4509C30.6403 20.7832 30.6026 21.1246 30.4753 21.4367C30.348 21.7488 30.1363 22.0192 29.8638 22.2175C29.5913 22.4158 29.2688 22.5342 28.9328 22.5594C28.5967 22.5845 28.2602 22.5154 27.9612 22.3599L26.4712 21.5769L24.9812 22.3599C24.6821 22.5172 24.345 22.5877 24.0079 22.5634C23.6708 22.5391 23.3472 22.4209 23.0738 22.2223C22.8004 22.0237 22.588 21.7525 22.4606 21.4395C22.3333 21.1264 22.2961 20.784 22.3532 20.4509L22.6372 18.7919L21.4312 17.6159C21.1878 17.3809 21.0155 17.082 20.9341 16.7536C20.8527 16.4251 20.8656 16.0804 20.9712 15.7589Z" fill="url(#paint5_linear_4001_6334)"/>
<defs>
<linearGradient id="paint0_linear_4001_6334" x1="0" y1="0" x2="55.9125" y2="52.8722" gradientUnits="userSpaceOnUse">
<stop stop-color="#F0015F"/>
<stop offset="0.341911" stop-color="#ED006A"/>
<stop offset="0.609169" stop-color="#D602AF"/>
<stop offset="1" stop-color="#C301EA"/>
</linearGradient>
<linearGradient id="paint1_linear_4001_6334" x1="0" y1="0" x2="55.9125" y2="52.8722" gradientUnits="userSpaceOnUse">
<stop stop-color="#F0015F"/>
<stop offset="0.341911" stop-color="#ED006A"/>
<stop offset="0.609169" stop-color="#D602AF"/>
<stop offset="1" stop-color="#C301EA"/>
</linearGradient>
<linearGradient id="paint2_linear_4001_6334" x1="0" y1="0" x2="55.9125" y2="52.8722" gradientUnits="userSpaceOnUse">
<stop stop-color="#F0015F"/>
<stop offset="0.341911" stop-color="#ED006A"/>
<stop offset="0.609169" stop-color="#D602AF"/>
<stop offset="1" stop-color="#C301EA"/>
</linearGradient>
<linearGradient id="paint3_linear_4001_6334" x1="0" y1="0" x2="55.9125" y2="52.8722" gradientUnits="userSpaceOnUse">
<stop stop-color="#F0015F"/>
<stop offset="0.341911" stop-color="#ED006A"/>
<stop offset="0.609169" stop-color="#D602AF"/>
<stop offset="1" stop-color="#C301EA"/>
</linearGradient>
<linearGradient id="paint4_linear_4001_6334" x1="0" y1="0" x2="55.9125" y2="52.8722" gradientUnits="userSpaceOnUse">
<stop stop-color="#F0015F"/>
<stop offset="0.341911" stop-color="#ED006A"/>
<stop offset="0.609169" stop-color="#D602AF"/>
<stop offset="1" stop-color="#C301EA"/>
</linearGradient>
<linearGradient id="paint5_linear_4001_6334" x1="0" y1="0" x2="55.9125" y2="52.8722" gradientUnits="userSpaceOnUse">
<stop stop-color="#F0015F"/>
<stop offset="0.341911" stop-color="#ED006A"/>
<stop offset="0.609169" stop-color="#D602AF"/>
<stop offset="1" stop-color="#C301EA"/>
</linearGradient>
</defs>
</svg>
