<svg width="45" height="48" viewBox="0 0 45 48" fill="none" xmlns="http://www.w3.org/2000/svg">
<path d="M22.5 0C22.9313 0 23.3625 0.09375 23.7563 0.271875L41.4094 7.7625C43.4719 8.63437 45.0094 10.6687 45 13.125C44.9532 22.425 41.1282 39.4406 24.975 47.175C23.4094 47.925 21.5907 47.925 20.025 47.175C3.87192 39.4406 0.0469176 22.425 4.26421e-05 13.125C-0.00933236 10.6687 1.52817 8.63437 3.59067 7.7625L21.2532 0.271875C21.6375 0.09375 22.0688 0 22.5 0ZM22.5 6.2625V41.7C35.4375 35.4375 38.9157 21.5719 39 13.2563L22.5 6.2625Z" fill="url(#paint0_linear_4001_3715)"/>
<defs>
<linearGradient id="paint0_linear_4001_3715" x1="0" y1="0" x2="47.6544" y2="44.9217" gradientUnits="userSpaceOnUse">
<stop stop-color="#F0015F"/>
<stop offset="0.341911" stop-color="#ED006A"/>
<stop offset="0.609169" stop-color="#D602AF"/>
<stop offset="1" stop-color="#C301EA"/>
</linearGradient>
</defs>
</svg>
