<svg width="56" height="56" viewBox="0 0 56 56" fill="none" xmlns="http://www.w3.org/2000/svg">
<path d="M44.8367 4.54719L46.0306 2.48016C46.2243 2.14485 46.6529 2.03005 46.9883 2.22372C47.3237 2.41739 47.4385 2.84615 47.2448 3.18146L46.0509 5.24849C45.9211 5.47331 45.6854 5.59896 45.4432 5.59896C45.3242 5.59896 45.2035 5.56863 45.0932 5.50481C44.7579 5.31114 44.6431 4.88249 44.8367 4.54719ZM31.3236 5.2486C31.4535 5.47343 31.6891 5.59908 31.9314 5.59908C32.0504 5.59908 32.1709 5.56874 32.2814 5.50493C32.6167 5.31125 32.7315 4.88249 32.5378 4.54719L31.3439 2.48016C31.1501 2.14485 30.7214 2.03005 30.3862 2.22372C30.0509 2.41739 29.9361 2.84615 30.1297 3.18146L31.3236 5.2486ZM38.6872 3.78662C39.0744 3.78662 39.3883 3.47278 39.3883 3.08555V0.701066C39.3883 0.313841 39.0744 0 38.6872 0C38.3 0 37.9861 0.313841 37.9861 0.701066V3.08555C37.9861 3.47278 38.3 3.78662 38.6872 3.78662ZM54.5848 15.8975H52.2003C51.8131 15.8975 51.4992 16.2113 51.4992 16.5985C51.4992 16.9858 51.8131 17.2996 52.2003 17.2996H54.5848C54.972 17.2996 55.2859 16.9858 55.2859 16.5985C55.2859 16.2113 54.972 15.8975 54.5848 15.8975ZM50.3919 10.5433C50.5108 10.5433 50.6313 10.5131 50.7417 10.4494L52.8054 9.25876C53.1408 9.06532 53.2558 8.63657 53.0623 8.30114C52.8687 7.96572 52.4398 7.8508 52.1046 8.04424L50.041 9.23485C49.7056 9.42828 49.5905 9.85704 49.7841 10.1925C49.9139 10.4175 50.1496 10.5433 50.3919 10.5433ZM52.8054 23.9417L50.7417 22.7511C50.4065 22.5578 49.9775 22.6726 49.7841 23.008C49.5905 23.3434 49.7056 23.7722 50.041 23.9656L52.1046 25.1562C52.215 25.2199 52.3355 25.2502 52.4544 25.2502C52.6967 25.2502 52.9325 25.1243 53.0623 24.8993C53.2558 24.5639 53.1408 24.1352 52.8054 23.9417ZM7.24785 16.2463C7.90458 16.2463 8.67157 15.8778 8.67157 14.8392V10.5333C8.67157 9.49467 7.90458 9.12611 7.24785 9.12611C6.59112 9.12611 5.82402 9.49467 5.82402 10.5333V14.8392C5.82402 15.8778 6.591 16.2463 7.24785 16.2463ZM27.744 16.5985C27.744 15.4816 27.9127 14.4032 28.2253 13.3873H24.6319V14.8392C24.6319 16.6836 23.2095 17.6486 21.8043 17.6486C20.3992 17.6486 18.9767 16.6836 18.9767 14.8392V13.3873H10.0737V14.8392C10.0737 16.6836 8.65208 17.6486 7.24773 17.6486C5.84338 17.6486 4.42177 16.6836 4.42177 14.8392V13.3873H2.66228C1.19423 13.3873 0 14.5832 0 16.0529V19.9488H28.269C27.9285 18.8925 27.7437 17.7668 27.7437 16.5987L27.744 16.5985ZM23.9275 51.6446H28.7295V46.8392H23.9275V51.6446ZM13.8803 30.5152H18.6856V25.7098H13.8803V30.5152ZM3.83644 30.5152H8.64182V25.7098H3.83644V30.5152ZM23.9275 41.0783H28.7295V36.273H23.9275V41.0783ZM3.83644 41.0783H8.64182V36.273H3.83644V41.0783ZM13.8803 41.0783H18.6856V36.273H13.8803V41.0783ZM3.83644 51.6447H8.64182V46.8394H3.83644V51.6447ZM13.8803 51.6447H18.6856V46.8394H13.8803V51.6447ZM21.8042 16.2463C22.4618 16.2463 23.2296 15.8778 23.2296 14.8392V10.5333C23.2296 9.49467 22.4616 9.12611 21.8042 9.12611C21.1468 9.12611 20.3789 9.49467 20.3789 10.5333V14.8392C20.3789 15.8778 21.1468 16.2463 21.8042 16.2463ZM38.6872 27.5419C36.9996 27.5419 35.4 27.1577 33.9712 26.4724V30.515H38.7766V27.5406C38.7467 27.5408 38.7171 27.5419 38.6872 27.5419ZM40.0696 15.1103C39.7655 15.1103 39.496 14.9142 39.4025 14.6247L38.6872 12.4106L37.972 14.6247C37.8786 14.9142 37.6089 15.1103 37.3049 15.1103H37.3034L34.9774 15.1052L36.8628 16.4706C37.1097 16.6493 37.2129 16.967 37.118 17.2566L36.3948 19.4657L38.2743 18.0958C38.3974 18.006 38.5423 17.9612 38.6873 17.9612C38.8323 17.9612 38.9772 18.006 39.1003 18.0958L40.9799 19.4657L40.2566 17.2566C40.1618 16.967 40.2649 16.6493 40.5118 16.4706L42.3973 15.1052L40.0714 15.1103H40.0699H40.0696ZM40.1787 27.4398C41.0244 27.3241 41.8396 27.1114 42.6128 26.8132V53.3377C42.6128 54.8058 41.4185 56 39.9505 56H2.66239C1.19434 56 0.000116605 54.8057 0.000116605 53.3377V21.351H28.8307C29.6766 23.0981 30.9734 24.5878 32.5691 25.6677V31.2162C32.5691 31.6034 32.8829 31.9172 33.2701 31.9172H39.4776C39.8649 31.9172 40.1787 31.6034 40.1787 31.2162V27.4398ZM10.0439 46.1382C10.0439 45.7509 9.73011 45.4371 9.34288 45.4371H3.13537C2.74815 45.4371 2.43431 45.7509 2.43431 46.1382V52.3457C2.43431 52.7329 2.74815 53.0467 3.13537 53.0467H9.34288C9.73011 53.0467 10.0439 52.7329 10.0439 52.3457V46.1382ZM10.0439 35.5718C10.0439 35.1846 9.73011 34.8707 9.34288 34.8707H3.13537C2.74815 34.8707 2.43431 35.1846 2.43431 35.5718V41.7793C2.43431 42.1665 2.74815 42.4804 3.13537 42.4804H9.34288C9.73011 42.4804 10.0439 42.1665 10.0439 41.7793V35.5718ZM10.0439 25.0087C10.0439 24.6214 9.73011 24.3076 9.34288 24.3076H3.13537C2.74815 24.3076 2.43431 24.6214 2.43431 25.0087V31.2163C2.43431 31.6035 2.74815 31.9173 3.13537 31.9173H9.34288C9.73011 31.9173 10.0439 31.6035 10.0439 31.2163V25.0087ZM20.0878 46.1382C20.0878 45.7509 19.7739 45.4371 19.3867 45.4371H13.1791C12.7919 45.4371 12.478 45.7509 12.478 46.1382V52.3457C12.478 52.7329 12.7919 53.0467 13.1791 53.0467H19.3867C19.7739 53.0467 20.0878 52.7329 20.0878 52.3457V46.1382ZM20.0878 35.5718C20.0878 35.1846 19.7739 34.8707 19.3867 34.8707H13.1791C12.7919 34.8707 12.478 35.1846 12.478 35.5718V41.7793C12.478 42.1665 12.7919 42.4804 13.1791 42.4804H19.3867C19.7739 42.4804 20.0878 42.1665 20.0878 41.7793V35.5718ZM20.0878 25.0087C20.0878 24.6214 19.7739 24.3076 19.3867 24.3076H13.1791C12.7919 24.3076 12.478 24.6214 12.478 25.0087V31.2163C12.478 31.6035 12.7919 31.9173 13.1791 31.9173H19.3867C19.7739 31.9173 20.0878 31.6035 20.0878 31.2163V25.0087ZM30.1316 46.1382C30.1316 45.7509 29.8178 45.4371 29.4305 45.4371H23.2263C22.8391 45.4371 22.5252 45.7509 22.5252 46.1382V52.3457C22.5252 52.7329 22.8391 53.0467 23.2263 53.0467H29.4305C29.8178 53.0467 30.1316 52.7329 30.1316 52.3457V46.1382ZM30.1316 35.5718C30.1316 35.1846 29.8178 34.8707 29.4305 34.8707H23.2263C22.8391 34.8707 22.5252 35.1846 22.5252 35.5718V41.7793C22.5252 42.1665 22.8391 42.4804 23.2263 42.4804H29.4305C29.8178 42.4804 30.1316 42.1665 30.1316 41.7793V35.5718ZM30.1316 25.0087C30.1316 24.6214 29.8178 24.3076 29.4305 24.3076H23.2263C22.8391 24.3076 22.5252 24.6214 22.5252 25.0087V31.2163C22.5252 31.6035 22.8391 31.9173 23.2263 31.9173H29.4305C29.8178 31.9173 30.1316 31.6035 30.1316 31.2163V25.0087ZM40.1788 46.1382C40.1788 45.7509 39.865 45.4371 39.4778 45.4371H33.2702C32.883 45.4371 32.5692 45.7509 32.5692 46.1382V52.3457C32.5692 52.7329 32.883 53.0467 33.2702 53.0467H39.4778C39.865 53.0467 40.1788 52.7329 40.1788 52.3457V46.1382ZM40.1788 35.5718C40.1788 35.1846 39.865 34.8707 39.4778 34.8707H33.2702C32.883 34.8707 32.5692 35.1846 32.5692 35.5718V41.7793C32.5692 42.1665 32.883 42.4804 33.2702 42.4804H39.4778C39.865 42.4804 40.1788 42.1665 40.1788 41.7793V35.5718ZM33.9713 41.0782H38.7767V36.2728H33.9713V41.0782ZM23.9275 30.5151H28.7295V25.7097H23.9275V30.5151ZM48.2285 16.5985C48.2285 21.8595 43.9483 26.1398 38.6873 26.1398C33.4263 26.1398 29.1461 21.8595 29.1461 16.5985C29.1461 11.3376 33.4263 7.06071 38.6873 7.06071C43.9483 7.06071 48.2285 11.3394 48.2285 16.5985ZM45.2342 14.1824C45.1401 13.8932 44.8734 13.6969 44.5659 13.6983L40.5797 13.707L39.3545 9.91433C39.2611 9.62487 38.9916 9.42875 38.6874 9.42875C38.3833 9.42875 38.1138 9.62487 38.0203 9.91433L36.7952 13.707L32.8089 13.6983H32.8074C32.5038 13.6983 32.2346 13.8937 32.1407 14.1824C32.0465 14.4718 32.1498 14.7888 32.3962 14.9672L35.6264 17.3063L34.3867 21.0931C34.2919 21.3822 34.3946 21.6994 34.6406 21.8783C34.8867 22.0572 35.22 22.057 35.466 21.8778L38.6876 19.5297L41.9091 21.8778C42.0322 21.9676 42.1771 22.0124 42.3222 22.0124C42.4672 22.0124 42.6115 21.9677 42.7345 21.8783C42.9805 21.6994 43.0831 21.3822 42.9885 21.0931L41.7487 17.3063L44.9789 14.9672C45.2254 14.7888 45.3286 14.4718 45.2345 14.1824H45.2342ZM33.9713 51.6446H38.7767V46.8392H33.9713V51.6446Z" fill="url(#paint0_linear_4001_4671)"/>
<defs>
<linearGradient id="paint0_linear_4001_4671" x1="0" y1="0" x2="55.9954" y2="55.2813" gradientUnits="userSpaceOnUse">
<stop stop-color="#F0015F"/>
<stop offset="0.341911" stop-color="#ED006A"/>
<stop offset="0.609169" stop-color="#D602AF"/>
<stop offset="1" stop-color="#C301EA"/>
</linearGradient>
</defs>
</svg>
